<mxfile host="app.diagrams.net" modified="2024-07-15T09:49:04.799Z" agent="Mozilla/5.0 (Windows NT 10.0; Win64; x64) AppleWebKit/537.36 (KHTML, like Gecko) Chrome/126.0.0.0 Safari/537.36" etag="ObUfkZB4ity-vYFEkLKK" version="24.6.5" type="device">
  <diagram name="ページ1" id="kiQVi5_YaG50EEfi4XL7">
    <mxGraphModel dx="1434" dy="772" grid="1" gridSize="10" guides="1" tooltips="1" connect="1" arrows="1" fold="1" page="1" pageScale="1" pageWidth="827" pageHeight="1169" math="0" shadow="0">
      <root>
        <mxCell id="0" />
        <mxCell id="1" parent="0" />
        <mxCell id="e9WS8QMJJKzLGApMXVDs-2" value="ログイン" style="shape=umlFrame;whiteSpace=wrap;html=1;pointerEvents=0;" vertex="1" parent="1">
          <mxGeometry y="140" width="1130" height="540" as="geometry" />
        </mxCell>
        <mxCell id="e9WS8QMJJKzLGApMXVDs-3" value="" style="shape=umlLifeline;perimeter=lifelinePerimeter;whiteSpace=wrap;html=1;container=1;dropTarget=0;collapsible=0;recursiveResize=0;outlineConnect=0;portConstraint=eastwest;newEdgeStyle={&quot;curved&quot;:0,&quot;rounded&quot;:0};participant=umlActor;" vertex="1" parent="1">
          <mxGeometry x="80" y="160" width="40" height="480" as="geometry" />
        </mxCell>
        <mxCell id="e9WS8QMJJKzLGApMXVDs-4" value="UserService" style="shape=umlLifeline;perimeter=lifelinePerimeter;whiteSpace=wrap;html=1;container=1;dropTarget=0;collapsible=0;recursiveResize=0;outlineConnect=0;portConstraint=eastwest;newEdgeStyle={&quot;curved&quot;:0,&quot;rounded&quot;:0};" vertex="1" parent="1">
          <mxGeometry x="240" y="160" width="100" height="480" as="geometry" />
        </mxCell>
        <mxCell id="e9WS8QMJJKzLGApMXVDs-17" value="" style="html=1;points=[[0,0,0,0,5],[0,1,0,0,-5],[1,0,0,0,5],[1,1,0,0,-5]];perimeter=orthogonalPerimeter;outlineConnect=0;targetShapes=umlLifeline;portConstraint=eastwest;newEdgeStyle={&quot;curved&quot;:0,&quot;rounded&quot;:0};" vertex="1" parent="e9WS8QMJJKzLGApMXVDs-4">
          <mxGeometry x="50" y="80" width="10" height="390" as="geometry" />
        </mxCell>
        <mxCell id="e9WS8QMJJKzLGApMXVDs-18" value="ログイン" style="html=1;verticalAlign=bottom;endArrow=block;curved=0;rounded=0;entryX=0;entryY=0;entryDx=0;entryDy=5;" edge="1" target="e9WS8QMJJKzLGApMXVDs-17" parent="1" source="e9WS8QMJJKzLGApMXVDs-3">
          <mxGeometry relative="1" as="geometry">
            <mxPoint x="220" y="245" as="sourcePoint" />
          </mxGeometry>
        </mxCell>
        <mxCell id="e9WS8QMJJKzLGApMXVDs-19" value="ユーザー詳細情報" style="html=1;verticalAlign=bottom;endArrow=open;dashed=1;endSize=8;curved=0;rounded=0;exitX=0;exitY=1;exitDx=0;exitDy=-5;" edge="1" source="e9WS8QMJJKzLGApMXVDs-17" parent="1" target="e9WS8QMJJKzLGApMXVDs-3">
          <mxGeometry relative="1" as="geometry">
            <mxPoint x="220" y="315" as="targetPoint" />
          </mxGeometry>
        </mxCell>
        <mxCell id="e9WS8QMJJKzLGApMXVDs-20" value="SecurityService" style="shape=umlLifeline;perimeter=lifelinePerimeter;whiteSpace=wrap;html=1;container=1;dropTarget=0;collapsible=0;recursiveResize=0;outlineConnect=0;portConstraint=eastwest;newEdgeStyle={&quot;curved&quot;:0,&quot;rounded&quot;:0};" vertex="1" parent="1">
          <mxGeometry x="440" y="160" width="100" height="480" as="geometry" />
        </mxCell>
        <mxCell id="e9WS8QMJJKzLGApMXVDs-21" value="" style="html=1;points=[[0,0,0,0,5],[0,1,0,0,-5],[1,0,0,0,5],[1,1,0,0,-5]];perimeter=orthogonalPerimeter;outlineConnect=0;targetShapes=umlLifeline;portConstraint=eastwest;newEdgeStyle={&quot;curved&quot;:0,&quot;rounded&quot;:0};" vertex="1" parent="e9WS8QMJJKzLGApMXVDs-20">
          <mxGeometry x="50" y="110" width="10" height="220" as="geometry" />
        </mxCell>
        <mxCell id="e9WS8QMJJKzLGApMXVDs-22" value="" style="html=1;verticalAlign=bottom;endArrow=block;curved=0;rounded=0;entryX=0;entryY=0;entryDx=0;entryDy=5;" edge="1" target="e9WS8QMJJKzLGApMXVDs-21" parent="1" source="e9WS8QMJJKzLGApMXVDs-17">
          <mxGeometry relative="1" as="geometry">
            <mxPoint x="420" y="275" as="sourcePoint" />
          </mxGeometry>
        </mxCell>
        <mxCell id="e9WS8QMJJKzLGApMXVDs-23" value="" style="html=1;verticalAlign=bottom;endArrow=open;dashed=1;endSize=8;curved=0;rounded=0;exitX=0;exitY=1;exitDx=0;exitDy=-5;" edge="1" source="e9WS8QMJJKzLGApMXVDs-21" parent="1">
          <mxGeometry relative="1" as="geometry">
            <mxPoint x="300" y="485" as="targetPoint" />
          </mxGeometry>
        </mxCell>
        <mxCell id="e9WS8QMJJKzLGApMXVDs-24" value="IPBlockListCache" style="shape=umlLifeline;perimeter=lifelinePerimeter;whiteSpace=wrap;html=1;container=1;dropTarget=0;collapsible=0;recursiveResize=0;outlineConnect=0;portConstraint=eastwest;newEdgeStyle={&quot;curved&quot;:0,&quot;rounded&quot;:0};" vertex="1" parent="1">
          <mxGeometry x="640" y="160" width="100" height="480" as="geometry" />
        </mxCell>
        <mxCell id="e9WS8QMJJKzLGApMXVDs-25" value="" style="html=1;points=[[0,0,0,0,5],[0,1,0,0,-5],[1,0,0,0,5],[1,1,0,0,-5]];perimeter=orthogonalPerimeter;outlineConnect=0;targetShapes=umlLifeline;portConstraint=eastwest;newEdgeStyle={&quot;curved&quot;:0,&quot;rounded&quot;:0};" vertex="1" parent="e9WS8QMJJKzLGApMXVDs-24">
          <mxGeometry x="50" y="120" width="10" height="50" as="geometry" />
        </mxCell>
        <mxCell id="e9WS8QMJJKzLGApMXVDs-26" value="&lt;div style=&quot;&quot;&gt;IPアクセス禁止リストに登録されているか確認する&lt;/div&gt;" style="html=1;verticalAlign=bottom;endArrow=block;curved=0;rounded=0;entryX=0;entryY=0;entryDx=0;entryDy=5;align=center;" edge="1" target="e9WS8QMJJKzLGApMXVDs-25" parent="1" source="e9WS8QMJJKzLGApMXVDs-21">
          <mxGeometry x="0.5789" y="15" relative="1" as="geometry">
            <mxPoint x="620" y="285" as="sourcePoint" />
            <mxPoint as="offset" />
          </mxGeometry>
        </mxCell>
        <mxCell id="e9WS8QMJJKzLGApMXVDs-27" value="" style="html=1;verticalAlign=bottom;endArrow=open;dashed=1;endSize=8;curved=0;rounded=0;exitX=0;exitY=1;exitDx=0;exitDy=-5;" edge="1" source="e9WS8QMJJKzLGApMXVDs-25" parent="1" target="e9WS8QMJJKzLGApMXVDs-21">
          <mxGeometry relative="1" as="geometry">
            <mxPoint x="490" y="325" as="targetPoint" />
          </mxGeometry>
        </mxCell>
        <mxCell id="e9WS8QMJJKzLGApMXVDs-28" value="BlockUserListCache" style="shape=umlLifeline;perimeter=lifelinePerimeter;whiteSpace=wrap;html=1;container=1;dropTarget=0;collapsible=0;recursiveResize=0;outlineConnect=0;portConstraint=eastwest;newEdgeStyle={&quot;curved&quot;:0,&quot;rounded&quot;:0};" vertex="1" parent="1">
          <mxGeometry x="790" y="160" width="120" height="480" as="geometry" />
        </mxCell>
        <mxCell id="e9WS8QMJJKzLGApMXVDs-30" value="" style="html=1;points=[[0,0,0,0,5],[0,1,0,0,-5],[1,0,0,0,5],[1,1,0,0,-5]];perimeter=orthogonalPerimeter;outlineConnect=0;targetShapes=umlLifeline;portConstraint=eastwest;newEdgeStyle={&quot;curved&quot;:0,&quot;rounded&quot;:0};" vertex="1" parent="e9WS8QMJJKzLGApMXVDs-28">
          <mxGeometry x="60.5" y="200" width="10" height="80" as="geometry" />
        </mxCell>
        <mxCell id="e9WS8QMJJKzLGApMXVDs-31" value="ユーザーがブラックリストに載っているかチェックする" style="html=1;verticalAlign=bottom;endArrow=block;curved=0;rounded=0;entryX=0;entryY=0;entryDx=0;entryDy=5;" edge="1" target="e9WS8QMJJKzLGApMXVDs-30" parent="1" source="e9WS8QMJJKzLGApMXVDs-21">
          <mxGeometry relative="1" as="geometry">
            <mxPoint x="480" y="365" as="sourcePoint" />
          </mxGeometry>
        </mxCell>
        <mxCell id="e9WS8QMJJKzLGApMXVDs-32" value="" style="html=1;verticalAlign=bottom;endArrow=open;dashed=1;endSize=8;curved=0;rounded=0;exitX=0;exitY=1;exitDx=0;exitDy=-5;entryX=0.8;entryY=0.764;entryDx=0;entryDy=0;entryPerimeter=0;" edge="1" source="e9WS8QMJJKzLGApMXVDs-30" parent="1" target="e9WS8QMJJKzLGApMXVDs-21">
          <mxGeometry relative="1" as="geometry">
            <mxPoint x="480" y="435" as="targetPoint" />
          </mxGeometry>
        </mxCell>
        <mxCell id="e9WS8QMJJKzLGApMXVDs-33" value="UserRepository" style="shape=umlLifeline;perimeter=lifelinePerimeter;whiteSpace=wrap;html=1;container=1;dropTarget=0;collapsible=0;recursiveResize=0;outlineConnect=0;portConstraint=eastwest;newEdgeStyle={&quot;curved&quot;:0,&quot;rounded&quot;:0};" vertex="1" parent="1">
          <mxGeometry x="960" y="160" width="120" height="480" as="geometry" />
        </mxCell>
        <mxCell id="e9WS8QMJJKzLGApMXVDs-35" value="" style="html=1;points=[[0,0,0,0,5],[0,1,0,0,-5],[1,0,0,0,5],[1,1,0,0,-5]];perimeter=orthogonalPerimeter;outlineConnect=0;targetShapes=umlLifeline;portConstraint=eastwest;newEdgeStyle={&quot;curved&quot;:0,&quot;rounded&quot;:0};" vertex="1" parent="e9WS8QMJJKzLGApMXVDs-33">
          <mxGeometry x="60" y="215" width="10" height="50" as="geometry" />
        </mxCell>
        <mxCell id="e9WS8QMJJKzLGApMXVDs-36" value="" style="html=1;verticalAlign=bottom;endArrow=block;curved=0;rounded=0;entryX=0;entryY=0;entryDx=0;entryDy=5;" edge="1" target="e9WS8QMJJKzLGApMXVDs-35" parent="e9WS8QMJJKzLGApMXVDs-33">
          <mxGeometry relative="1" as="geometry">
            <mxPoint x="-99.5" y="220" as="sourcePoint" />
          </mxGeometry>
        </mxCell>
        <mxCell id="e9WS8QMJJKzLGApMXVDs-37" value="" style="html=1;verticalAlign=bottom;endArrow=open;dashed=1;endSize=8;curved=0;rounded=0;exitX=0;exitY=1;exitDx=0;exitDy=-5;" edge="1" source="e9WS8QMJJKzLGApMXVDs-35" parent="e9WS8QMJJKzLGApMXVDs-33">
          <mxGeometry relative="1" as="geometry">
            <mxPoint x="-99.5" y="260" as="targetPoint" />
          </mxGeometry>
        </mxCell>
        <mxCell id="e9WS8QMJJKzLGApMXVDs-38" value="ブラックリスト" style="edgeLabel;html=1;align=center;verticalAlign=middle;resizable=0;points=[];" vertex="1" connectable="0" parent="e9WS8QMJJKzLGApMXVDs-37">
          <mxGeometry x="0.0408" y="3" relative="1" as="geometry">
            <mxPoint as="offset" />
          </mxGeometry>
        </mxCell>
        <mxCell id="e9WS8QMJJKzLGApMXVDs-40" value="" style="html=1;points=[[0,0,0,0,5],[0,1,0,0,-5],[1,0,0,0,5],[1,1,0,0,-5]];perimeter=orthogonalPerimeter;outlineConnect=0;targetShapes=umlLifeline;portConstraint=eastwest;newEdgeStyle={&quot;curved&quot;:0,&quot;rounded&quot;:0};" vertex="1" parent="e9WS8QMJJKzLGApMXVDs-33">
          <mxGeometry x="60" y="345" width="10" height="80" as="geometry" />
        </mxCell>
        <mxCell id="e9WS8QMJJKzLGApMXVDs-41" value="" style="html=1;verticalAlign=bottom;endArrow=block;curved=0;rounded=0;entryX=0;entryY=0;entryDx=0;entryDy=5;" edge="1" target="e9WS8QMJJKzLGApMXVDs-40" parent="1" source="e9WS8QMJJKzLGApMXVDs-17">
          <mxGeometry relative="1" as="geometry">
            <mxPoint x="950" y="510" as="sourcePoint" />
          </mxGeometry>
        </mxCell>
        <mxCell id="e9WS8QMJJKzLGApMXVDs-43" value="アカウントパスワードによるユーザーの検索" style="edgeLabel;html=1;align=center;verticalAlign=middle;resizable=0;points=[];" vertex="1" connectable="0" parent="e9WS8QMJJKzLGApMXVDs-41">
          <mxGeometry x="-0.1139" y="-1" relative="1" as="geometry">
            <mxPoint as="offset" />
          </mxGeometry>
        </mxCell>
        <mxCell id="e9WS8QMJJKzLGApMXVDs-42" value="" style="html=1;verticalAlign=bottom;endArrow=open;dashed=1;endSize=8;curved=0;rounded=0;exitX=0;exitY=1;exitDx=0;exitDy=-5;" edge="1" source="e9WS8QMJJKzLGApMXVDs-40" parent="1" target="e9WS8QMJJKzLGApMXVDs-17">
          <mxGeometry relative="1" as="geometry">
            <mxPoint x="950" y="580" as="targetPoint" />
          </mxGeometry>
        </mxCell>
        <mxCell id="e9WS8QMJJKzLGApMXVDs-44" value="登録" style="shape=umlFrame;whiteSpace=wrap;html=1;pointerEvents=0;" vertex="1" parent="1">
          <mxGeometry y="760" width="1130" height="570" as="geometry" />
        </mxCell>
        <mxCell id="e9WS8QMJJKzLGApMXVDs-45" value="" style="shape=umlLifeline;perimeter=lifelinePerimeter;whiteSpace=wrap;html=1;container=1;dropTarget=0;collapsible=0;recursiveResize=0;outlineConnect=0;portConstraint=eastwest;newEdgeStyle={&quot;curved&quot;:0,&quot;rounded&quot;:0};participant=umlActor;" vertex="1" parent="1">
          <mxGeometry x="80" y="800" width="40" height="480" as="geometry" />
        </mxCell>
        <mxCell id="e9WS8QMJJKzLGApMXVDs-50" value="UserService" style="shape=umlLifeline;perimeter=lifelinePerimeter;whiteSpace=wrap;html=1;container=1;dropTarget=0;collapsible=0;recursiveResize=0;outlineConnect=0;portConstraint=eastwest;newEdgeStyle={&quot;curved&quot;:0,&quot;rounded&quot;:0};" vertex="1" parent="1">
          <mxGeometry x="240" y="800" width="100" height="480" as="geometry" />
        </mxCell>
        <mxCell id="e9WS8QMJJKzLGApMXVDs-51" value="" style="html=1;points=[[0,0,0,0,5],[0,1,0,0,-5],[1,0,0,0,5],[1,1,0,0,-5]];perimeter=orthogonalPerimeter;outlineConnect=0;targetShapes=umlLifeline;portConstraint=eastwest;newEdgeStyle={&quot;curved&quot;:0,&quot;rounded&quot;:0};" vertex="1" parent="e9WS8QMJJKzLGApMXVDs-50">
          <mxGeometry x="50" y="80" width="10" height="390" as="geometry" />
        </mxCell>
        <mxCell id="e9WS8QMJJKzLGApMXVDs-52" value="登録" style="html=1;verticalAlign=bottom;endArrow=block;curved=0;rounded=0;entryX=0;entryY=0;entryDx=0;entryDy=5;" edge="1" target="e9WS8QMJJKzLGApMXVDs-51" parent="1" source="e9WS8QMJJKzLGApMXVDs-45">
          <mxGeometry relative="1" as="geometry">
            <mxPoint x="220" y="885" as="sourcePoint" />
          </mxGeometry>
        </mxCell>
        <mxCell id="e9WS8QMJJKzLGApMXVDs-53" value="ユーザー詳細情報" style="html=1;verticalAlign=bottom;endArrow=open;dashed=1;endSize=8;curved=0;rounded=0;exitX=0;exitY=1;exitDx=0;exitDy=-5;" edge="1" source="e9WS8QMJJKzLGApMXVDs-51" parent="1" target="e9WS8QMJJKzLGApMXVDs-45">
          <mxGeometry relative="1" as="geometry">
            <mxPoint x="220" y="955" as="targetPoint" />
          </mxGeometry>
        </mxCell>
        <mxCell id="e9WS8QMJJKzLGApMXVDs-54" value="UserChecker" style="shape=umlLifeline;perimeter=lifelinePerimeter;whiteSpace=wrap;html=1;container=1;dropTarget=0;collapsible=0;recursiveResize=0;outlineConnect=0;portConstraint=eastwest;newEdgeStyle={&quot;curved&quot;:0,&quot;rounded&quot;:0};" vertex="1" parent="1">
          <mxGeometry x="440" y="800" width="100" height="480" as="geometry" />
        </mxCell>
        <mxCell id="e9WS8QMJJKzLGApMXVDs-55" value="" style="html=1;points=[[0,0,0,0,5],[0,1,0,0,-5],[1,0,0,0,5],[1,1,0,0,-5]];perimeter=orthogonalPerimeter;outlineConnect=0;targetShapes=umlLifeline;portConstraint=eastwest;newEdgeStyle={&quot;curved&quot;:0,&quot;rounded&quot;:0};" vertex="1" parent="e9WS8QMJJKzLGApMXVDs-54">
          <mxGeometry x="50" y="100" width="10" height="80" as="geometry" />
        </mxCell>
        <mxCell id="e9WS8QMJJKzLGApMXVDs-56" value="フィールドでの合法性チェック" style="html=1;verticalAlign=bottom;endArrow=block;curved=0;rounded=0;entryX=0;entryY=0;entryDx=0;entryDy=5;" edge="1" target="e9WS8QMJJKzLGApMXVDs-55" parent="1" source="e9WS8QMJJKzLGApMXVDs-51">
          <mxGeometry relative="1" as="geometry">
            <mxPoint x="420" y="905" as="sourcePoint" />
          </mxGeometry>
        </mxCell>
        <mxCell id="e9WS8QMJJKzLGApMXVDs-57" value="" style="html=1;verticalAlign=bottom;endArrow=open;dashed=1;endSize=8;curved=0;rounded=0;exitX=0;exitY=1;exitDx=0;exitDy=-5;" edge="1" source="e9WS8QMJJKzLGApMXVDs-55" parent="1" target="e9WS8QMJJKzLGApMXVDs-51">
          <mxGeometry relative="1" as="geometry">
            <mxPoint x="420" y="975" as="targetPoint" />
          </mxGeometry>
        </mxCell>
        <mxCell id="e9WS8QMJJKzLGApMXVDs-65" value="UserRepository" style="shape=umlLifeline;perimeter=lifelinePerimeter;whiteSpace=wrap;html=1;container=1;dropTarget=0;collapsible=0;recursiveResize=0;outlineConnect=0;portConstraint=eastwest;newEdgeStyle={&quot;curved&quot;:0,&quot;rounded&quot;:0};" vertex="1" parent="1">
          <mxGeometry x="650" y="800" width="100" height="480" as="geometry" />
        </mxCell>
        <mxCell id="e9WS8QMJJKzLGApMXVDs-66" value="" style="html=1;points=[[0,0,0,0,5],[0,1,0,0,-5],[1,0,0,0,5],[1,1,0,0,-5]];perimeter=orthogonalPerimeter;outlineConnect=0;targetShapes=umlLifeline;portConstraint=eastwest;newEdgeStyle={&quot;curved&quot;:0,&quot;rounded&quot;:0};" vertex="1" parent="e9WS8QMJJKzLGApMXVDs-65">
          <mxGeometry x="50" y="220" width="10" height="80" as="geometry" />
        </mxCell>
        <mxCell id="e9WS8QMJJKzLGApMXVDs-73" value="" style="html=1;points=[[0,0,0,0,5],[0,1,0,0,-5],[1,0,0,0,5],[1,1,0,0,-5]];perimeter=orthogonalPerimeter;outlineConnect=0;targetShapes=umlLifeline;portConstraint=eastwest;newEdgeStyle={&quot;curved&quot;:0,&quot;rounded&quot;:0};" vertex="1" parent="e9WS8QMJJKzLGApMXVDs-65">
          <mxGeometry x="50" y="340" width="10" height="80" as="geometry" />
        </mxCell>
        <mxCell id="e9WS8QMJJKzLGApMXVDs-67" value="重複チェック" style="html=1;verticalAlign=bottom;endArrow=block;curved=0;rounded=0;entryX=0;entryY=0;entryDx=0;entryDy=5;" edge="1" target="e9WS8QMJJKzLGApMXVDs-66" parent="1" source="e9WS8QMJJKzLGApMXVDs-51">
          <mxGeometry relative="1" as="geometry">
            <mxPoint x="630" y="1025" as="sourcePoint" />
          </mxGeometry>
        </mxCell>
        <mxCell id="e9WS8QMJJKzLGApMXVDs-68" value="" style="html=1;verticalAlign=bottom;endArrow=open;dashed=1;endSize=8;curved=0;rounded=0;exitX=0;exitY=1;exitDx=0;exitDy=-5;" edge="1" source="e9WS8QMJJKzLGApMXVDs-66" parent="1" target="e9WS8QMJJKzLGApMXVDs-51">
          <mxGeometry relative="1" as="geometry">
            <mxPoint x="630" y="1095" as="targetPoint" />
          </mxGeometry>
        </mxCell>
        <mxCell id="e9WS8QMJJKzLGApMXVDs-74" value="登録" style="html=1;verticalAlign=bottom;endArrow=block;curved=0;rounded=0;entryX=0;entryY=0;entryDx=0;entryDy=5;" edge="1" target="e9WS8QMJJKzLGApMXVDs-73" parent="1" source="e9WS8QMJJKzLGApMXVDs-51">
          <mxGeometry relative="1" as="geometry">
            <mxPoint x="630" y="1145" as="sourcePoint" />
          </mxGeometry>
        </mxCell>
        <mxCell id="e9WS8QMJJKzLGApMXVDs-75" value="" style="html=1;verticalAlign=bottom;endArrow=open;dashed=1;endSize=8;curved=0;rounded=0;exitX=0;exitY=1;exitDx=0;exitDy=-5;" edge="1" source="e9WS8QMJJKzLGApMXVDs-73" parent="1" target="e9WS8QMJJKzLGApMXVDs-51">
          <mxGeometry relative="1" as="geometry">
            <mxPoint x="290" y="1215" as="targetPoint" />
          </mxGeometry>
        </mxCell>
      </root>
    </mxGraphModel>
  </diagram>
</mxfile>
